<svg width="24" height="25" viewBox="0 0 24 25" fill="none" xmlns="http://www.w3.org/2000/svg">
<path d="M19.6566 7.50861H4.34347C4.15912 7.50858 3.98112 7.57595 3.84299 7.69803C3.70485 7.8201 3.61611 7.98847 3.59347 8.17142L2.25753 19.4214C2.24517 19.527 2.25539 19.634 2.28751 19.7353C2.31962 19.8366 2.37291 19.9299 2.44382 20.0091C2.51474 20.0882 2.60167 20.1514 2.69885 20.1944C2.79603 20.2375 2.90125 20.2593 3.00753 20.2586H20.9925C21.0988 20.2593 21.204 20.2375 21.3012 20.1944C21.3984 20.1514 21.4853 20.0882 21.5562 20.0091C21.6272 19.9299 21.6804 19.8366 21.7126 19.7353C21.7447 19.634 21.7549 19.527 21.7425 19.4214L20.4066 8.17142C20.3839 7.98847 20.2952 7.8201 20.1571 7.69803C20.0189 7.57595 19.8409 7.50858 19.6566 7.50861Z" stroke="#212322" stroke-width="1.5" stroke-linecap="round" stroke-linejoin="round"/>
<path d="M8.25 7.50861V6.75861C8.25 5.76404 8.64509 4.81022 9.34835 4.10696C10.0516 3.40369 11.0054 3.00861 12 3.00861C12.9946 3.00861 13.9484 3.40369 14.6517 4.10696C15.3549 4.81022 15.75 5.76404 15.75 6.75861V7.50861" stroke="#212322" stroke-width="1.5" stroke-linecap="round" stroke-linejoin="round"/>
</svg>
